{
    "asset" : {
        "generator" : "Khronos glTF Blender I/O v3.4.49",
        "version" : "2.0"
    },
    "scene" : 0,
    "scenes" : [
        {
            "name" : "Scene",
            "nodes" : [
                0,
                1
            ]
        }
    ],
    "nodes" : [
        {
            "mesh" : 0,
            "name" : "Plane",
            "rotation" : [
                0.5000000596046448,
                -0.5,
                -0.5,
                0.5
            ],
            "scale" : [
                1.1100000143051147,
                10,
                5.199999809265137
            ],
            "translation" : [
                -0.042297184467315674,
                0,
                -0.03782762214541435
            ]
        },
        {
            "mesh" : 1,
            "name" : "Text",
            "rotation" : [
                0.7071068286895752,
                0,
                0,
                0.7071068286895752
            ],
            "scale" : [
                0.2241930067539215,
                1.8823060989379883,
                0.14152434468269348
            ],
            "translation" : [
                -0.7880764007568359,
                -1.0125212669372559,
                0
            ]
        }
    ],
    "materials" : [
        {
            "doubleSided" : true,
            "name" : "Material.001",
            "pbrMetallicRoughness" : {
                "baseColorFactor" : [
                    0.9473062753677368,
                    0.5457243323326111,
                    0.0003037078131455928,
                    1
                ],
                "metallicFactor" : 0,
                "roughnessFactor" : 0.5
            }
        },
        {
            "doubleSided" : true,
            "name" : "Material.002",
            "pbrMetallicRoughness" : {
                "baseColorFactor" : [
                    0,
                    0,
                    0,
                    1
                ],
                "metallicFactor" : 0,
                "roughnessFactor" : 0.5
            }
        }
    ],
    "meshes" : [
        {
            "name" : "Plane",
            "primitives" : [
                {
                    "attributes" : {
                        "POSITION" : 0,
                        "TEXCOORD_0" : 1,
                        "NORMAL" : 2
                    },
                    "indices" : 3,
                    "material" : 0
                }
            ]
        },
        {
            "name" : "Text.002",
            "primitives" : [
                {
                    "attributes" : {
                        "POSITION" : 4,
                        "TEXCOORD_0" : 5,
                        "NORMAL" : 6
                    },
                    "indices" : 7,
                    "material" : 1
                }
            ]
        }
    ],
    "accessors" : [
        {
            "bufferView" : 0,
            "componentType" : 5126,
            "count" : 31944,
            "max" : [
                1,
                0.003000000026077032,
                1
            ],
            "min" : [
                -1,
                0,
                -1
            ],
            "type" : "VEC3"
        },
        {
            "bufferView" : 1,
            "componentType" : 5126,
            "count" : 31944,
            "type" : "VEC2"
        },
        {
            "bufferView" : 2,
            "componentType" : 5126,
            "count" : 31944,
            "type" : "VEC3"
        },
        {
            "bufferView" : 3,
            "componentType" : 5123,
            "count" : 48036,
            "type" : "SCALAR"
        },
        {
            "bufferView" : 4,
            "componentType" : 5126,
            "count" : 1702,
            "max" : [
                7.079000473022461,
                0,
                0.009000000543892384
            ],
            "min" : [
                0.06100000441074371,
                0,
                -0.6914074420928955
            ],
            "type" : "VEC3"
        },
        {
            "bufferView" : 5,
            "componentType" : 5126,
            "count" : 1702,
            "type" : "VEC2"
        },
        {
            "bufferView" : 6,
            "componentType" : 5126,
            "count" : 1702,
            "type" : "VEC3"
        },
        {
            "bufferView" : 7,
            "componentType" : 5123,
            "count" : 3729,
            "type" : "SCALAR"
        }
    ],
    "bufferViews" : [
        {
            "buffer" : 0,
            "byteLength" : 383328,
            "byteOffset" : 0,
            "target" : 34962
        },
        {
            "buffer" : 0,
            "byteLength" : 255552,
            "byteOffset" : 383328,
            "target" : 34962
        },
        {
            "buffer" : 0,
            "byteLength" : 383328,
            "byteOffset" : 638880,
            "target" : 34962
        },
        {
            "buffer" : 0,
            "byteLength" : 96072,
            "byteOffset" : 1022208,
            "target" : 34963
        },
        {
            "buffer" : 0,
            "byteLength" : 20424,
            "byteOffset" : 1118280,
            "target" : 34962
        },
        {
            "buffer" : 0,
            "byteLength" : 13616,
            "byteOffset" : 1138704,
            "target" : 34962
        },
        {
            "buffer" : 0,
            "byteLength" : 20424,
            "byteOffset" : 1152320,
            "target" : 34962
        },
        {
            "buffer" : 0,
            "byteLength" : 7458,
            "byteOffset" : 1172744,
            "target" : 34963
        }
    ],
    "buffers" : [
        {
            "byteLength" : 1180204,
            "uri" : "data:application/octet-stream;base64,"
        }
    ]
}
