{
    "asset" : {
        "generator" : "Khronos glTF Blender I/O v3.4.49",
        "version" : "2.0"
    },
    "scene" : 0,
    "scenes" : [
        {
            "name" : "Scene",
            "nodes" : [
                0,
                1
            ]
        }
    ],
    "nodes" : [
        {
            "mesh" : 0,
            "name" : "Plane.002",
            "rotation" : [
                0.7071068286895752,
                0,
                0,
                0.7071068286895752
            ],
            "scale" : [
                20.14775848388672,
                20.14775848388672,
                4.3007402420043945
            ]
        },
        {
            "mesh" : 1,
            "name" : "Circle",
            "rotation" : [
                0.7071068286895752,
                0,
                0,
                0.7071068286895752
            ],
            "translation" : [
                0,
                0,
                0.062224358320236206
            ]
        }
    ],
    "materials" : [
        {
            "doubleSided" : true,
            "name" : "Material.003",
            "pbrMetallicRoughness" : {
                "baseColorFactor" : [
                    0.9473062753677368,
                    0.5457243323326111,
                    0.0003037078131455928,
                    1
                ],
                "metallicFactor" : 0,
                "roughnessFactor" : 0.5
            }
        },
        {
            "doubleSided" : true,
            "name" : "Material.002",
            "pbrMetallicRoughness" : {
                "baseColorFactor" : [
                    0,
                    0,
                    0,
                    1
                ],
                "metallicFactor" : 0,
                "roughnessFactor" : 0.5
            }
        }
    ],
    "meshes" : [
        {
            "name" : "Plane.001",
            "primitives" : [
                {
                    "attributes" : {
                        "POSITION" : 0,
                        "TEXCOORD_0" : 1,
                        "NORMAL" : 2
                    },
                    "indices" : 3,
                    "material" : 0
                }
            ]
        },
        {
            "name" : "Circle.001",
            "primitives" : [
                {
                    "attributes" : {
                        "POSITION" : 4,
                        "TEXCOORD_0" : 5,
                        "NORMAL" : 6
                    },
                    "indices" : 7,
                    "material" : 1
                }
            ]
        }
    ],
    "accessors" : [
        {
            "bufferView" : 0,
            "componentType" : 5126,
            "count" : 1710,
            "max" : [
                0.25999999046325684,
                0.0029792245477437973,
                0.25999999046325684
            ],
            "min" : [
                -0.25999999046325684,
                2.0775445591425523e-05,
                -0.25999999046325684
            ],
            "type" : "VEC3"
        },
        {
            "bufferView" : 1,
            "componentType" : 5126,
            "count" : 1710,
            "type" : "VEC2"
        },
        {
            "bufferView" : 2,
            "componentType" : 5126,
            "count" : 1710,
            "type" : "VEC3"
        },
        {
            "bufferView" : 3,
            "componentType" : 5123,
            "count" : 4248,
            "type" : "SCALAR"
        },
        {
            "bufferView" : 4,
            "componentType" : 5126,
            "count" : 252,
            "max" : [
                5.136805534362793,
                2.846017466140438e-08,
                1.0018529891967773
            ],
            "min" : [
                -5.132804870605469,
                -2.9340071705519222e-08,
                -1.000373125076294
            ],
            "type" : "VEC3"
        },
        {
            "bufferView" : 5,
            "componentType" : 5126,
            "count" : 252,
            "type" : "VEC2"
        },
        {
            "bufferView" : 6,
            "componentType" : 5126,
            "count" : 252,
            "type" : "VEC3"
        },
        {
            "bufferView" : 7,
            "componentType" : 5123,
            "count" : 378,
            "type" : "SCALAR"
        }
    ],
    "bufferViews" : [
        {
            "buffer" : 0,
            "byteLength" : 20520,
            "byteOffset" : 0,
            "target" : 34962
        },
        {
            "buffer" : 0,
            "byteLength" : 13680,
            "byteOffset" : 20520,
            "target" : 34962
        },
        {
            "buffer" : 0,
            "byteLength" : 20520,
            "byteOffset" : 34200,
            "target" : 34962
        },
        {
            "buffer" : 0,
            "byteLength" : 8496,
            "byteOffset" : 54720,
            "target" : 34963
        },
        {
            "buffer" : 0,
            "byteLength" : 3024,
            "byteOffset" : 63216,
            "target" : 34962
        },
        {
            "buffer" : 0,
            "byteLength" : 2016,
            "byteOffset" : 66240,
            "target" : 34962
        },
        {
            "buffer" : 0,
            "byteLength" : 3024,
            "byteOffset" : 68256,
            "target" : 34962
        },
        {
            "buffer" : 0,
            "byteLength" : 756,
            "byteOffset" : 71280,
            "target" : 34963
        }
    ],
    "buffers" : [
        {
            "byteLength" : 72036,
            "uri" : "data:application/octet-stream;base64,"
        }
    ]
}
